<svg xmlns="http://www.w3.org/2000/svg" width="49.132" height="49.132" viewBox="0 0 49.132 49.132">
  <g id="chat_1_" data-name="chat (1)" transform="translate(0)">
    <g id="Group_26" data-name="Group 26" transform="translate(0 0)">
      <g id="Group_25" data-name="Group 25" transform="translate(0 0)">
        <path id="Path_20" data-name="Path 20" d="M44.961,29.419A1.919,1.919,0,0,0,41.4,30.858l2.26,5.591L36.949,33.49a1.919,1.919,0,0,0-1.527-.009,18.5,18.5,0,0,1-7.3,1.475c-10.275,0-17.177-8.045-17.177-15.559,0-8.579,7.706-15.559,17.177-15.559S45.294,10.818,45.294,19.4a15.651,15.651,0,0,1-.171,2.2,1.919,1.919,0,1,0,3.8.566,19.367,19.367,0,0,0,.213-2.765A18.55,18.55,0,0,0,42.916,5.623,21.811,21.811,0,0,0,28.117,0a21.812,21.812,0,0,0-14.8,5.623A18.653,18.653,0,0,0,7.177,17.746,15.515,15.515,0,0,0,0,30.662a14.89,14.89,0,0,0,2.943,8.9L.14,46.493a1.919,1.919,0,0,0,2.553,2.475l8.083-3.563a18.266,18.266,0,0,0,6.4,1.14c.048,0,.1,0,.142-.007a18.165,18.165,0,0,0,9.03-2.448,16.521,16.521,0,0,0,5.806-5.654,22.085,22.085,0,0,0,3.987-1.108l10.3,4.539a1.919,1.919,0,0,0,2.554-2.475ZM17.177,42.7c-.026,0-.052,0-.078,0a14.394,14.394,0,0,1-5.607-1.147,1.918,1.918,0,0,0-1.527.009L5.47,43.55l1.45-3.587A1.919,1.919,0,0,0,6.6,38a11.2,11.2,0,0,1-2.763-7.337,11.419,11.419,0,0,1,3.548-8.176,19.374,19.374,0,0,0,5.677,10.375,21.453,21.453,0,0,0,13.963,5.908A14.1,14.1,0,0,1,17.177,42.7Z" transform="translate(0 0)" fill="#fff"/>
        <circle id="Ellipse_2" data-name="Ellipse 2" cx="1.965" cy="1.965" r="1.965" transform="translate(26.121 17.568)" fill="#fff"/>
        <circle id="Ellipse_3" data-name="Ellipse 3" cx="1.965" cy="1.965" r="1.965" transform="translate(33.75 17.568)" fill="#fff"/>
        <ellipse id="Ellipse_4" data-name="Ellipse 4" cx="1.849" cy="1.965" rx="1.849" ry="1.965" transform="translate(18.493 17.568)" fill="#fff"/>
      </g>
    </g>
  </g>
</svg>
