<svg xmlns="http://www.w3.org/2000/svg" width="42.862" height="42.851" viewBox="0 0 42.862 42.851">
  <g id="coach" transform="translate(0 -0.062)">
    <g id="Group_10" data-name="Group 10" transform="translate(0 0.062)">
      <g id="Group_9" data-name="Group 9" transform="translate(0 0)">
        <path id="Path_11" data-name="Path 11" d="M41.064,32.408a8.92,8.92,0,0,0-6.981-7.188l-7.672-1.659h-.138V19.207a8.317,8.317,0,0,0,3.456-6.7V8.356a8.294,8.294,0,0,0-16.587,0V12.5a8.22,8.22,0,0,0,3.456,6.7v4.354h-.138l-7.672,1.59a8.92,8.92,0,0,0-6.981,7.188L.01,42.084a.758.758,0,0,0,.553.829H42.17a.653.653,0,0,0,.691-.691v-.138ZM21.436,1.444a6.884,6.884,0,0,1,6.773,5.529H14.663A6.884,6.884,0,0,1,21.436,1.444Zm6.635,6.911L26,10.429H16.874L14.8,8.356ZM14.524,12.5V10.014l1.59,1.59a.627.627,0,0,0,.484.207h9.676a.627.627,0,0,0,.484-.207l1.59-1.59V12.5a6.911,6.911,0,0,1-13.823,0Zm10.367,7.533v4.631l-.484.484a4.267,4.267,0,0,1-2.9,1.244h-.138a3.869,3.869,0,0,1-2.9-1.244l-.484-.484V20.036a8.234,8.234,0,0,0,6.911,0Zm-9.676,5.253,1.175-.276,1.037,1.106a5.479,5.479,0,0,0,3.94,1.59H21.5a5.6,5.6,0,0,0,3.94-1.59l1.106-1.106,1.175.276V27.5l-3.663,4.838a3.408,3.408,0,0,0-4.838-.346l-.346.346L15.215,27.5V25.289Zm6.22,11.4a2.073,2.073,0,1,1,2.073-2.073v4.147H22.127V37.384A.653.653,0,0,0,21.436,36.693ZM10.377,41.531H1.531l.276-1.382h8.57Zm20.734.069H11.76V32.546H10.377v6.22H2.015L3.12,32.615a7.6,7.6,0,0,1,5.944-6.082L13.833,25.5v2.212a.982.982,0,0,0,.138.415l4.147,5.529a4.079,4.079,0,0,0-.138.968,3.476,3.476,0,0,0,2.765,3.387v1.451a.653.653,0,0,0,.691.691H24.2a.653.653,0,0,0,.691-.691V34.619a4.079,4.079,0,0,0-.138-.968L28.9,28.122a.982.982,0,0,0,.138-.415V25.565L33.807,26.6a7.6,7.6,0,0,1,5.944,6.082l1.106,6.151H32.494v-6.22H31.112Zm1.382-.069V40.148h8.57l.276,1.382Z" transform="translate(0 -0.062)" fill="#fff"/>
      </g>
    </g>
    <g id="Group_12" data-name="Group 12" transform="translate(20.745 33.928)">
      <g id="Group_11" data-name="Group 11">
        <rect id="Rectangle_762" data-name="Rectangle 762" width="1.382" height="1.382" fill="#fff"/>
      </g>
    </g>
  </g>
</svg>
