<svg id="menu" xmlns="http://www.w3.org/2000/svg" width="41.144" height="41.144" viewBox="0 0 41.144 41.144">
  <g id="Group_1" data-name="Group 1">
    <path id="Path_1" data-name="Path 1" d="M16.286,13.715H2.571A2.575,2.575,0,0,1,0,11.143V2.571A2.575,2.575,0,0,1,2.571,0H16.286a2.575,2.575,0,0,1,2.571,2.571v8.572A2.575,2.575,0,0,1,16.286,13.715Zm-13.715-12a.859.859,0,0,0-.857.857v8.572A.859.859,0,0,0,2.571,12H16.286a.859.859,0,0,0,.857-.857V2.571a.859.859,0,0,0-.857-.857Z" fill="#64d3f2"/>
  </g>
  <g id="Group_2" data-name="Group 2" transform="translate(0 17.143)">
    <path id="Path_2" data-name="Path 2" d="M16.286,34H2.571A2.575,2.575,0,0,1,0,31.429V12.571A2.575,2.575,0,0,1,2.571,10H16.286a2.575,2.575,0,0,1,2.571,2.571V31.429A2.575,2.575,0,0,1,16.286,34ZM2.571,11.714a.859.859,0,0,0-.857.857V31.429a.859.859,0,0,0,.857.857H16.286a.859.859,0,0,0,.857-.857V12.571a.859.859,0,0,0-.857-.857Z" transform="translate(0 -10)" fill="#64d3f2"/>
  </g>
  <g id="Group_3" data-name="Group 3" transform="translate(22.286 27.429)">
    <path id="Path_3" data-name="Path 3" d="M29.286,29.715H15.571A2.575,2.575,0,0,1,13,27.143V18.571A2.575,2.575,0,0,1,15.571,16H29.286a2.575,2.575,0,0,1,2.571,2.571v8.572A2.575,2.575,0,0,1,29.286,29.715Zm-13.715-12a.859.859,0,0,0-.857.857v8.572a.859.859,0,0,0,.857.857H29.286a.859.859,0,0,0,.857-.857V18.571a.859.859,0,0,0-.857-.857Z" transform="translate(-13 -16)" fill="#64d3f2"/>
  </g>
  <g id="Group_4" data-name="Group 4" transform="translate(22.286)">
    <path id="Path_4" data-name="Path 4" d="M29.286,24H15.571A2.575,2.575,0,0,1,13,21.429V2.571A2.575,2.575,0,0,1,15.571,0H29.286a2.575,2.575,0,0,1,2.571,2.571V21.429A2.575,2.575,0,0,1,29.286,24ZM15.571,1.714a.859.859,0,0,0-.857.857V21.429a.859.859,0,0,0,.857.857H29.286a.859.859,0,0,0,.857-.857V2.571a.859.859,0,0,0-.857-.857Z" transform="translate(-13)" fill="#64d3f2"/>
  </g>
</svg>
