<svg id="chat" xmlns="http://www.w3.org/2000/svg" width="45.663" height="45.663" viewBox="0 0 45.663 45.663">
  <g id="Group_14" data-name="Group 14" transform="translate(8.562 8.562)">
    <g id="Group_13" data-name="Group 13">
      <path id="Path_12" data-name="Path 12" d="M114.55,96H97.427a1.427,1.427,0,0,0,0,2.854H114.55a1.427,1.427,0,0,0,0-2.854Z" transform="translate(-96 -96)" fill="#fff"/>
    </g>
  </g>
  <g id="Group_16" data-name="Group 16" transform="translate(8.562 14.27)">
    <g id="Group_15" data-name="Group 15">
      <path id="Path_13" data-name="Path 13" d="M108.843,160H97.427a1.427,1.427,0,0,0,0,2.854h11.416a1.427,1.427,0,0,0,0-2.854Z" transform="translate(-96 -160)" fill="#fff"/>
    </g>
  </g>
  <g id="Group_18" data-name="Group 18">
    <g id="Group_17" data-name="Group 17">
      <path id="Path_14" data-name="Path 14" d="M31.393,0H5.708A5.714,5.714,0,0,0,0,5.708V34.247A1.426,1.426,0,0,0,.822,35.54a1.448,1.448,0,0,0,.605.134,1.427,1.427,0,0,0,.913-.331l8.165-6.8H31.393A5.714,5.714,0,0,0,37.1,22.831V5.708A5.714,5.714,0,0,0,31.393,0Zm2.854,22.831a2.857,2.857,0,0,1-2.854,2.854H9.989a1.425,1.425,0,0,0-.913.331L2.854,31.2V5.708A2.857,2.857,0,0,1,5.708,2.854H31.393a2.857,2.857,0,0,1,2.854,2.854Z" fill="#fff"/>
    </g>
  </g>
  <g id="Group_20" data-name="Group 20" transform="translate(11.416 11.416)">
    <g id="Group_19" data-name="Group 19">
      <path id="Path_15" data-name="Path 15" d="M156.539,128a1.427,1.427,0,0,0,0,2.854,2.857,2.857,0,0,1,2.854,2.854v24.141L154.576,154a1.438,1.438,0,0,0-.89-.311H133.708a2.857,2.857,0,0,1-2.854-2.854V149.4a1.427,1.427,0,1,0-2.854,0v1.427a5.714,5.714,0,0,0,5.708,5.708h19.475l6.744,5.4a1.428,1.428,0,0,0,2.32-1.116V133.708A5.714,5.714,0,0,0,156.539,128Z" transform="translate(-128 -128)" fill="#fff"/>
    </g>
  </g>
</svg>
