<svg xmlns="http://www.w3.org/2000/svg" width="41.144" height="34.089" viewBox="0 0 41.144 34.089">
  <g id="video" transform="translate(0 -43.894)">
    <path id="Path_9" data-name="Path 9" d="M331,195.157l10.708-7.06L331,181.037Zm2.411-9.643,3.918,2.583-3.918,2.583Z" transform="translate(-304.401 -126.122)" fill="#fff"/>
    <path id="Path_10" data-name="Path 10" d="M20.8,48.625A25.668,25.668,0,0,0,6.027,43.894H4.822v4.081A45.619,45.619,0,0,0,0,48.98v29a39.58,39.58,0,0,1,20.28-.374l.292.073.292-.073a39.519,39.519,0,0,1,20.28.374v-29A41.742,41.742,0,0,0,20.8,48.625ZM2.411,74.926V50.874c.8-.179,1.6-.332,2.411-.46V72.823H6.027a23.131,23.131,0,0,1,7.651,1.318A41.3,41.3,0,0,0,2.411,74.926ZM19.367,74.2A25.554,25.554,0,0,0,7.232,70.442v-24.1a23.181,23.181,0,0,1,12.134,4.229Zm19.367.722a41.314,41.314,0,0,0-16.956,0V50.874a38.878,38.878,0,0,1,16.956,0Z" fill="#fff"/>
  </g>
</svg>
