<svg xmlns="http://www.w3.org/2000/svg" width="38.042" height="38.042" viewBox="0 0 38.042 38.042">
  <g id="Icon_feather-settings" data-name="Icon feather-settings" transform="translate(-0.5 -0.5)">
    <path id="Path_7" data-name="Path 7" d="M23.33,18.415A4.915,4.915,0,1,1,18.415,13.5,4.915,4.915,0,0,1,23.33,18.415Z" transform="translate(1.106 1.106)" fill="none" stroke="#000" stroke-linecap="round" stroke-linejoin="round" stroke-width="2"/>
    <path id="Path_8" data-name="Path 8" d="M31.644,24.436a2.7,2.7,0,0,0,.541,2.982l.1.1a3.278,3.278,0,1,1-4.636,4.636l-.1-.1a2.725,2.725,0,0,0-4.62,1.933v.279a3.277,3.277,0,1,1-6.553,0v-.147a2.7,2.7,0,0,0-1.769-2.474,2.7,2.7,0,0,0-2.982.541l-.1.1A3.278,3.278,0,1,1,6.89,27.647l.1-.1a2.725,2.725,0,0,0-1.933-4.62H4.777a3.277,3.277,0,1,1,0-6.553h.147A2.7,2.7,0,0,0,7.4,14.606a2.7,2.7,0,0,0-.541-2.982l-.1-.1A3.278,3.278,0,1,1,11.4,6.89l.1.1a2.7,2.7,0,0,0,2.982.541h.131a2.7,2.7,0,0,0,1.638-2.474V4.777a3.277,3.277,0,0,1,6.553,0v.147a2.725,2.725,0,0,0,4.62,1.933l.1-.1A3.278,3.278,0,1,1,32.152,11.4l-.1.1a2.7,2.7,0,0,0-.541,2.982v.131a2.7,2.7,0,0,0,2.474,1.638h.279a3.277,3.277,0,1,1,0,6.553h-.147a2.7,2.7,0,0,0-2.474,1.638Z" fill="none" stroke="#000" stroke-linecap="round" stroke-linejoin="round" stroke-width="2"/>
  </g>
</svg>
