<svg xmlns="http://www.w3.org/2000/svg" id="Layer_1" enable-background="new 0 0 64 64" viewBox="0 0 64 64"><linearGradient id="SVGID_1_" x1="33.078" x2="33.078" y1="12.872" y2="61.607" gradientUnits="userSpaceOnUse"><stop offset="0" stop-color="#fff" stop-opacity=".25"/><stop offset="1" stop-color="#fed3be"/></linearGradient><path fill="url(#SVGID_1_)" d="M45.8,17.4c-1.5-1.5-3-3-4.9-3.9c-2.3-1-4.9-0.8-7.2-0.1c-2.4,0.7-4.5,2-6.7,3.2c-6.1,3.5-12.2,7.1-18.4,10.6
			C7.3,28,5.9,28.8,5,30c-1.8,2.3-1.7,5.6-0.5,8.2c1.2,2.6,3.4,4.6,5.7,6.3c2.3,1.7,4.7,3.3,6.8,5.3c1.9,1.9,3.4,4.2,5.3,6.1
			c5.7,5.7,15.2,7.3,22.4,3.7c5.3-2.6,9-7.5,12.6-12.2c2.6-3.4,5.3-7.2,5.3-11.5c0-4.2-2.7-7.8-6.5-9.4C52,25,48.9,20.6,45.8,17.4z"/><path fill="none" stroke="#000" stroke-linecap="round" stroke-linejoin="round" stroke-miterlimit="10" stroke-width="1.418" d="M37.2,28.3v6c0,0,0,0.1,0,0.1c0,2-1.7,3.6-3.7,3.6h-8.6h-4.6l-6.4,4.6l-0.2-4.6h0c-2,0-3.7-1.7-3.7-3.7
							V22.7c0-2.1,1.6-3.7,3.7-3.7h14.5"/><path fill="none" stroke="#000" stroke-linecap="round" stroke-linejoin="round" stroke-miterlimit="10" stroke-width="1.418" d="M51.6 28.3l-.2 4.6L45 28.3H31.8c-2 0-3.7-1.7-3.7-3.7V13c0-2.1 1.6-3.7 3.7-3.7h19.9c2 0 3.7 1.7 3.7 3.7v11.6C55.4 26.7 53.7 28.3 51.6 28.3L51.6 28.3zM37.2 34.5h7.2c1.7 0 3 1.4 3 3.1v9.6c0 1.7-1.4 3.1-3 3.1h0L44.2 54l-5.3-3.8H28c-1.7 0-3-1.4-3-3.1v-9.1"/><path fill="#ff9d23" stroke="#0000db" stroke-linecap="round" stroke-linejoin="round" stroke-miterlimit="10" stroke-width="1.21" d="M37.2,34.5h7.2c1.7,0,3,1.4,3,3.1v9.6c0,1.7-1.4,3.1-3,3.1h0L44.2,54l-5.3-3.8H28c-1.7,0-3-1.4-3-3.1v-9.1
				L37.2,34.5z"/><line x1="31.7" x2="40.7" y1="41.1" y2="41.1" fill="none" stroke="#fff" stroke-linecap="round" stroke-linejoin="round" stroke-miterlimit="10" stroke-width="1.21"/><line x1="31.7" x2="40.7" y1="45" y2="45" fill="none" stroke="#fff" stroke-linecap="round" stroke-linejoin="round" stroke-miterlimit="10" stroke-width="1.21"/><path fill="#9495fa" stroke="#0000db" stroke-linecap="round" stroke-linejoin="round" stroke-miterlimit="10" stroke-width="1.21" d="M37.2,28.3v6c0,0,0,0.1,0,0.1c0,2-1.7,3.6-3.7,3.6h-8.6h-4.6l-6.4,4.6l-0.2-4.6h0c-2,0-3.7-1.7-3.7-3.7
				V22.7c0-2.1,1.6-3.7,3.7-3.7h14.5L37.2,28.3z"/><path fill="#f86c66" stroke="#0000db" stroke-linecap="round" stroke-linejoin="round" stroke-miterlimit="10" stroke-width="1.21" d="M51.6,28.3l-0.2,4.6L45,28.3H31.8c-2,0-3.7-1.7-3.7-3.7V13c0-2.1,1.6-3.7,3.7-3.7h19.9
				c2,0,3.7,1.7,3.7,3.7v11.6C55.4,26.7,53.7,28.3,51.6,28.3L51.6,28.3z"/><g><line x1="36" x2="47.5" y1="16.7" y2="16.7" fill="none" stroke="#fff" stroke-linecap="round" stroke-linejoin="round" stroke-miterlimit="10" stroke-width="1.21"/><line x1="36" x2="47.5" y1="21" y2="21" fill="none" stroke="#fff" stroke-linecap="round" stroke-linejoin="round" stroke-miterlimit="10" stroke-width="1.21"/></g><polyline fill="none" stroke="#ff9d23" stroke-linecap="round" stroke-linejoin="round" stroke-miterlimit="10" stroke-width="1.501" points="58 4.5 55.9 2.4 54.1 4.2"/><polyline fill="none" stroke="#0000db" stroke-linecap="round" stroke-linejoin="round" stroke-miterlimit="10" stroke-width="1.372" points="3.6 28.2 1.7 26.3 0 28"/><line x1="61.2" x2="64" y1="12.7" y2="15.4" fill="none" stroke="#9495fa" stroke-linecap="round" stroke-linejoin="round" stroke-miterlimit="10" stroke-width="1.501"/><line x1="4.6" x2="7.6" y1="12.6" y2="15.5" fill="none" stroke="#ff4b4d" stroke-linecap="round" stroke-linejoin="round" stroke-miterlimit="10" stroke-width="1.372"/><line x1="59.7" x2="62.7" y1="51.8" y2="54.8" fill="none" stroke="#ff4b4d" stroke-linecap="round" stroke-linejoin="round" stroke-miterlimit="10" stroke-width="1.372"/><line x1="6.1" x2="9.1" y1="50.3" y2="53.3" fill="none" stroke="#ff9d23" stroke-linecap="round" stroke-linejoin="round" stroke-miterlimit="10" stroke-width="1.372"/></svg>