<svg xmlns="http://www.w3.org/2000/svg" enable-background="new 0 0 48 48" viewBox="0 0 48 48"><path d="M12.5,45.5h27c0.55,0,1-0.45,1-1v-8v-33c0-0.55-0.45-1-1-1h-27c-2.76,0-5,2.24-5,5v33C7.5,43.26,9.74,45.5,12.5,45.5z
		 M13.5,4.5h25v31h-25V4.5z M9.5,7.5c0-1.3,0.84-2.4,2-2.82V35.6c-0.74,0.15-1.42,0.48-2,0.92V7.5z M12.5,37.5h26v2h-10
		c-0.55,0-1,0.45-1,1s0.45,1,1,1h10v2h-26c-1.65,0-3-1.35-3-3S10.85,37.5,12.5,37.5z"/><path d="M35.5,9.5h-19c-0.55,0-1,0.45-1,1v9c0,0.55,0.45,1,1,1h19c0.55,0,1-0.45,1-1v-9C36.5,9.95,36.05,9.5,35.5,9.5z M34.5,18.5
		h-17v-7h17V18.5z"/></svg>