<svg xmlns="http://www.w3.org/2000/svg" enable-background="new 0 0 66 66" viewBox="0 0 66 66"><path d="M22.5288 28.7842c-2.0029 0-3.6328 1.6289-3.6328 3.6318 0 2.0088 1.6299 3.6436 3.6328 3.6436s3.6323-1.6348 3.6323-3.6436C26.1611 30.4131 24.5317 28.7842 22.5288 28.7842zM22.5288 35.0596c-1.4517 0-2.6328-1.1855-2.6328-2.6436 0-1.4512 1.1812-2.6318 2.6328-2.6318s2.6323 1.1807 2.6323 2.6318C25.1611 33.874 23.9805 35.0596 22.5288 35.0596zM11.5332 28.7842c-2.0029 0-3.6328 1.6289-3.6328 3.6318 0 2.0088 1.6299 3.6436 3.6328 3.6436 2.0088 0 3.6431-1.6348 3.6431-3.6436C15.1763 30.4131 13.542 28.7842 11.5332 28.7842zM11.5332 35.0596c-1.4517 0-2.6328-1.1855-2.6328-2.6436 0-1.4512 1.1812-2.6318 2.6328-2.6318 1.4575 0 2.6431 1.1807 2.6431 2.6318C14.1763 33.874 12.9907 35.0596 11.5332 35.0596zM33.5239 28.7842c-2.0088 0-3.6431 1.6289-3.6431 3.6318 0 2.0088 1.6343 3.6436 3.6431 3.6436 2.0029 0 3.6328-1.6348 3.6328-3.6436C37.1567 30.4131 35.5269 28.7842 33.5239 28.7842zM33.5239 35.0596c-1.4575 0-2.6431-1.1855-2.6431-2.6436 0-1.4512 1.1855-2.6318 2.6431-2.6318 1.4517 0 2.6328 1.1807 2.6328 2.6318C36.1567 33.874 34.9756 35.0596 33.5239 35.0596z"/><path d="M61.625,8.6474H25.3188c-1.8555,0-3.3647,1.5146-3.3647,3.376v5.0596H4.3804C2.5166,17.083,1,18.5947,1,20.4531v23.9297
		c0,1.8633,1.5166,3.3799,3.3804,3.3799H6.79v8.5898c0,0.3799,0.2148,0.7266,0.5542,0.8955
		c0.1411,0.0703,0.2939,0.1045,0.4458,0.1045c0.2134,0,0.4258-0.0684,0.603-0.2021l12.4224-9.3877h19.8647
		c1.8638,0,3.3799-1.5166,3.3799-3.3799v-5.0537h1.1304l12.4287,9.3936c0.1772,0.1338,0.3892,0.2021,0.603,0.2021
		c0.1519,0,0.3047-0.0342,0.4458-0.1045c0.3394-0.1689,0.5542-0.5156,0.5542-0.8955v-8.5957h2.4028
		c1.8608,0,3.375-1.5137,3.375-3.375V12.0234C65,10.1621,63.4858,8.6474,61.625,8.6474z M40.6802,45.7627H20.48
		c-0.2178,0-0.4292,0.0713-0.603,0.2021L8.79,54.3437v-7.5811c0-0.5527-0.4478-1-1-1H4.3804C3.6191,45.7627,3,45.1435,3,44.3828
		V20.4531c0-0.7559,0.6191-1.3701,1.3804-1.3701h36.2998c0.7607,0,1.3799,0.6143,1.3799,1.3701v17.8615
		c-0.0001,0.0051-0.0029,0.0094-0.0029,0.0145s0.0029,0.0094,0.0029,0.0145v6.0392C42.0601,45.1435,41.4409,45.7627,40.6802,45.7627
		z M63,35.9541c0,0.7578-0.6167,1.375-1.375,1.375h-3.4028c-0.5522,0-1,0.4473-1,1v7.5869l-11.0933-8.3848
		c-0.1738-0.1309-0.3853-0.2021-0.603-0.2021h-1.4658v-16.876c0-1.8584-1.5161-3.3701-3.3799-3.3701H23.9541v-5.0596
		c0-0.7588,0.6123-1.376,1.3647-1.376H61.625c0.7583,0,1.375,0.6172,1.375,1.376V35.9541z"/><path d="M60.0005,13.1474H45.7871c-0.2764,0-0.5,0.2236-0.5,0.5s0.2236,0.5,0.5,0.5h13.7134v20.1816c0,0.2764,0.2236,0.5,0.5,0.5
		s0.5-0.2236,0.5-0.5V13.6474C60.5005,13.3711,60.2769,13.1474,60.0005,13.1474z"/></svg>