<?xml version="1.0" encoding="UTF-8"?><svg xmlns="http://www.w3.org/2000/svg" xmlns:xlink="http://www.w3.org/1999/xlink" version="1.1" id="Layer_1" x="0px" y="0px" viewBox="0 0 24 24" xml:space="preserve"><path fill="#303C42" d="M12 4C5.383 4 0 9.383 0 16c0 1.241.192 2.47.57 3.652a.5.5 0 0 0 .477.348h21.906a.5.5 0 0 0 .477-.348c.378-1.182.57-2.41.57-3.652 0-6.617-5.383-12-12-12z"/><path fill="#D7CCC8" d="M22.582 19H1.418a10.952 10.952 0 0 1-.383-2.5H2.5a.5.5 0 1 0 0-1H1.025c.074-1.637.5-3.181 1.217-4.557l1.28.74a.5.5 0 0 0 .5-.866l-1.277-.738a11.072 11.072 0 0 1 3.334-3.335l.738 1.279a.499.499 0 1 0 .866-.5l-.74-1.281A10.914 10.914 0 0 1 11.5 5.025V6.5a.5.5 0 1 0 1 0V5.025c1.637.074 3.181.501 4.557 1.217l-.74 1.28a.5.5 0 1 0 .866.5l.738-1.278a11.072 11.072 0 0 1 3.334 3.335l-1.277.738a.5.5 0 1 0 .5.866l1.28-.74a10.914 10.914 0 0 1 1.217 4.557H21.5a.5.5 0 1 0 0 1h1.465a10.952 10.952 0 0 1-.383 2.5z"/><path fill="#5C6671" d="M17.17 10.125l-5.854 5.146A.992.992 0 0 0 11 16c0 .551.448 1 1 1 .266 0 .517-.104.73-.316l5.146-5.854a.5.5 0 0 0-.706-.705z"/><path fill="#E6E6E6" d="M12.557 5.031c-.019 0-.038-.005-.057-.006v.003c.02 0 .038.002.057.003z"/><path fill="#E6E6E6" d="M11.5 5.028v-.003c-.02.001-.038.005-.057.006l.057-.003z"/><linearGradient id="SVGID_1_" gradientUnits="userSpaceOnUse" x1="14.6002502" y1="13.4622498" x2="21.3600159" y2="20.2220154"><stop offset="0" stop-color="#000" stop-opacity="0.1"/><stop offset="1" stop-color="#000" stop-opacity="0"/></linearGradient><path fill="url(#SVGID_1_)" d="M21 16a.5.5 0 0 1 .5-.5h1.475c-.004-.078-.018-.153-.023-.23l-5.047-5.047a.494.494 0 0 1-.029.607l-5.147 5.854A1.014 1.014 0 0 1 12 17a.99.99 0 0 1-.67-.268l-.002.002L13.594 19h8.988c.232-.815.345-1.654.383-2.5H21.5a.5.5 0 0 1-.5-.5z"/><path opacity="0.1" d="M13 6c1.336 0 2.612.252 3.798.69l.259-.448A10.914 10.914 0 0 0 12.5 5.025v1c.167-.007.331-.025.5-.025z"/><path opacity="0.1" d="M20.151 8.659c-.657-.73-1.4-1.381-2.23-1.915l-.195.338c.878.42 1.694.949 2.425 1.577z"/><path opacity="0.1" d="M11.5 6.115v-1.09c-1.637.074-3.181.501-4.557 1.217l.677 1.173a10.912 10.912 0 0 1 3.88-1.3z"/><path opacity="0.1" d="M2 17c0-.169.018-.333.025-.5h-.99c.038.846.151 1.685.383 2.5h.79A10.944 10.944 0 0 1 2 17z"/><path opacity="0.1" d="M3.415 11.62l-1.173-.677A10.914 10.914 0 0 0 1.025 15.5h1.09a10.913 10.913 0 0 1 1.3-3.88z"/><path opacity="0.1" d="M6.771 7.943L6.08 6.744a11.072 11.072 0 0 0-3.334 3.335l1.198.692a11.086 11.086 0 0 1 2.828-2.828z"/><linearGradient id="SVGID_2_" gradientUnits="userSpaceOnUse" x1="1.9063293" y1="9.2529554" x2="23.5722923" y2="19.3559608"><stop offset="0" stop-color="#FFF" stop-opacity="0.2"/><stop offset="1" stop-color="#FFF" stop-opacity="0"/></linearGradient><path fill="url(#SVGID_2_)" d="M12 4C5.383 4 0 9.383 0 16c0 1.241.192 2.47.57 3.652a.5.5 0 0 0 .477.348h21.906a.5.5 0 0 0 .477-.348c.378-1.182.57-2.41.57-3.652 0-6.617-5.383-12-12-12z"/><metadata><rdf:RDF xmlns:rdf="http://www.w3.org/1999/02/22-rdf-syntax-ns#" xmlns:rdfs="http://www.w3.org/2000/01/rdf-schema#" xmlns:dc="http://purl.org/dc/elements/1.1/"><rdf:Description about="https://iconscout.com/legal#licenses" dc:title="settings,setup,set,dashboard" dc:description="settings,setup,set,dashboard" dc:publisher="Iconscout" dc:date="2017-08-16" dc:format="image/svg+xml" dc:language="en"><dc:creator><rdf:Bag><rdf:li>Those Icons</rdf:li></rdf:Bag></dc:creator></rdf:Description></rdf:RDF></metadata></svg>