<svg xmlns="http://www.w3.org/2000/svg" data-name="Layer 1" viewBox="0 0 512 512"><path d="M380.031,273.471c4.85-8.556,5.278-16.208,5.278-23.336,0-32.37-29.579-58.7-65.935-58.7a73.118,73.118,0,0,0-20.13,2.808v-4.587a24.789,24.789,0,0,0-24.762-24.761H157.352a24.788,24.788,0,0,0-24.761,24.761v67.822a24.788,24.788,0,0,0,24.761,24.761H180.6v18.588a6,6,0,0,0,9.421,4.929l33.866-23.517h40.32c11.789,16,32.107,26.6,55.163,26.6,12.457,0,27.972-5.605,35.593-9.45a58.052,58.052,0,0,0,28.382,8.331,8.394,8.394,0,0,0,8.157-12.737C385.46,285.174,381.167,276.8,380.031,273.471Zm-158.019-3.236a5.994,5.994,0,0,0-3.422,1.072L192.6,289.352V276.235a6,6,0,0,0-6-6H157.352a12.775,12.775,0,0,1-12.761-12.761V189.652a12.775,12.775,0,0,1,12.761-12.761h117.13a12.775,12.775,0,0,1,12.762,12.761V198.9c-20.149,10.056-33.805,29.248-33.805,51.235a52.736,52.736,0,0,0,3.984,20.1ZM373.75,294.356a46.405,46.405,0,0,1-13.343-5.707h0a10.169,10.169,0,0,0-10.147-.335c-7.72,4.1-21.724,8.525-30.886,8.525-29.739,0-53.935-20.952-53.935-46.7s24.2-46.7,53.935-46.7,53.935,20.952,53.935,46.7c0,7.669-.69,12.661-4.459,18.661-1.564,2.487-3.475,5.534,8.747,26.353Q375.655,294.834,373.75,294.356Z"/><path d="M318.523 212.92a22.118 22.118 0 0 0-22.431 22.117 6 6 0 1 0 12 0 10.116 10.116 0 0 1 10.264-10.118 10.12 10.12 0 0 1 1.556 20.1 9.189 9.189 0 0 0-7.7 9.072v8.561a6 6 0 0 0 12 0v-6.312a21.986 21.986 0 0 0 16.116-21.612A22.267 22.267 0 0 0 318.523 212.92zM318.456 274.807a7.185 7.185 0 1 0 7.186 7.185A7.193 7.193 0 0 0 318.456 274.807z"/><path d="M90.643,344.034h335.07a10.279,10.279,0,0,0,10.272-10.261V130.252a10.278,10.278,0,0,0-10.272-10.261H90.643A10.279,10.279,0,0,0,80.37,130.252V333.773A10.28,10.28,0,0,0,90.643,344.034ZM92.37,131.991H423.985V332.034H92.37Z"/><path d="M475.327,369.142V108.66A29.723,29.723,0,0,0,445.607,79H70.748a29.723,29.723,0,0,0-29.719,29.66V368.682A32.169,32.169,0,0,0,42.24,433H469.76a32.165,32.165,0,0,0,5.567-63.858ZM70.748,91H445.607a17.71,17.71,0,0,1,17.72,17.66V368.651H324.353a17.866,17.866,0,0,0-17.86,17.83,5.851,5.851,0,0,1-5.859,5.83H205.756a5.851,5.851,0,0,1-5.86-5.83,17.866,17.866,0,0,0-17.86-17.83H53.029V108.66A17.71,17.71,0,0,1,70.748,91ZM484.1,415.06A20.139,20.139,0,0,1,469.76,421H42.24a20.175,20.175,0,1,1,0-40.349h139.8a5.852,5.852,0,0,1,5.86,5.83,17.864,17.864,0,0,0,17.86,17.83h94.878a17.865,17.865,0,0,0,17.859-17.83,5.852,5.852,0,0,1,5.86-5.83H469.76A20.236,20.236,0,0,1,490,400.806,20.007,20.007,0,0,1,484.1,415.06Z"/><path d="M236.447 201.15a6 6 0 0 0-6-6h-59.06a6 6 0 0 0 0 12h59.06A6 6 0 0 0 236.447 201.15zM266.447 201.15a6 6 0 0 0-6-6h-9.06a6 6 0 0 0 0 12h9.06A6 6 0 0 0 266.447 201.15zM180.447 225.15h-9.06a6 6 0 0 0 0 12h9.06a6 6 0 0 0 0-12zM240.447 225.15h-39.06a6 6 0 0 0 0 12h39.06a6 6 0 0 0 0-12z"/></svg>