<svg xmlns="http://www.w3.org/2000/svg" data-name="Layer 1" viewBox="0 0 512 512"><path fill="#e5e5e5" d="M257.79,212.351a2.235,2.235,0,0,1-1.56.63L254.45,35.2h.02A19.22,19.22,0,0,1,273.71,16H382.37a14.37,14.37,0,0,1,14.37,14.36V185.3a14.37,14.37,0,0,1-14.37,14.36H271.74a2.229,2.229,0,0,0-1.55.63Z"/><path fill="#e2e4ed" d="M254.45,35.2l1.78,177.78a2.189,2.189,0,0,1-1.54-.63l-12.4-12.06a2.229,2.229,0,0,0-1.55-.63H128.69a14.37,14.37,0,0,1-14.37-14.36V30.361A14.37,14.37,0,0,1,128.69,16H235.22A19.218,19.218,0,0,1,254.45,35.2Z"/><path fill="#fbb040" d="M175.17 387.861l1.87 1.68a53.04 53.04 0 0 0-8.84 29.42V472.3H40.5v-46.69a46.672 46.672 0 0 1 45.45-46.67 40.12 40.12 0 0 0 63.34 1.56 10.4 10.4 0 0 1 1.31-1.49A46.358 46.358 0 0 1 175.17 387.861zM158.87 300.961v21.08a41.325 41.325 0 0 1-41.33 41.33h-.22a41.325 41.325 0 0 1-41.33-41.33v-21.08a41.323 41.323 0 0 1 41.33-41.32h.22A41.323 41.323 0 0 1 158.87 300.961z"/><path fill="#eadf53" d="M471.5 425.611V472.3H343.98v-53.34a53.078 53.078 0 0 0-9-29.68 46.4 46.4 0 0 1 28.11-10.34 40.12 40.12 0 0 0 63.34 1.56 10.4 10.4 0 0 1 1.31-1.49A46.667 46.667 0 0 1 471.5 425.611zM436.01 300.961v21.08a41.325 41.325 0 0 1-41.33 41.33h-.22a41.325 41.325 0 0 1-41.33-41.33v-21.08a41.323 41.323 0 0 1 41.33-41.32h.22A41.323 41.323 0 0 1 436.01 300.961z"/><rect width="94.69" height="118.51" x="208.75" y="229.341" fill="#fb6771" rx="47.22"/><path fill="#fb6771" d="M334.98,389.281a53.078,53.078,0,0,1,9,29.68V496H168.2v-77.04a53.322,53.322,0,0,1,51.93-53.32,45.831,45.831,0,0,0,72.36,1.78,12.886,12.886,0,0,1,1.5-1.7A53.268,53.268,0,0,1,334.98,389.281Z"/><path fill="#c0fffd" d="M240.74,199.66a2.225,2.225,0,0,1,1.55.631l12.4,12.059a2.185,2.185,0,0,0,1.54.631L256.1,199.66Z"/><path fill="#b0b5ca" d="M144.32,185.3V30.361A14.369,14.369,0,0,1,158.69,16h-30a14.369,14.369,0,0,0-14.37,14.36V185.3a14.369,14.369,0,0,0,14.37,14.36h30A14.369,14.369,0,0,1,144.32,185.3Z"/><path fill="#e75163" d="M238.75 300.64V276.56A47.228 47.228 0 0 1 271.1 231.745a47.149 47.149 0 0 0-14.875-2.4h-.25a47.218 47.218 0 0 0-47.22 47.219v24.08a47.21 47.21 0 0 0 47.22 47.21h.25a47.177 47.177 0 0 0 14.875-2.4A47.215 47.215 0 0 1 238.75 300.64zM220.13 365.64a53.324 53.324 0 0 0-51.93 53.321V496h30v-77.04a53.037 53.037 0 0 1 8.84-29.42 53.59 53.59 0 0 1 18.919-17.386A46.3 46.3 0 0 1 220.13 365.64z"/><path fill="#284268" d="M128.693,205.661H239.209L250.5,216.652a8.183,8.183,0,0,0,11.476,0l11.3-10.993h109.1A20.389,20.389,0,0,0,402.738,185.3V30.362A20.388,20.388,0,0,0,382.369,10H273.706a25.2,25.2,0,0,0-19.243,8.917A25.2,25.2,0,0,0,235.22,10H128.693a20.389,20.389,0,0,0-20.369,20.362V185.3A20.389,20.389,0,0,0,128.693,205.661ZM260.474,35.2A13.231,13.231,0,0,1,273.706,22H382.369a8.375,8.375,0,0,1,8.369,8.362V185.3a8.375,8.375,0,0,1-8.369,8.362H271.74a8.178,8.178,0,0,0-5.736,2.33l-3.9,3.8L260.452,35.2Zm-140.15-4.838A8.375,8.375,0,0,1,128.693,22H235.22a13.244,13.244,0,0,1,13.232,13.26L250.1,199.512l-3.617-3.519a8.178,8.178,0,0,0-5.738-2.332H128.693a8.375,8.375,0,0,1-8.369-8.362Z"/><path fill="#284268" d="M179.854 53.328h44.858a6 6 0 0 0 0-12H179.854a6 6 0 0 0 0 12zM141 53.328h17.319a6 6 0 0 0 0-12H141a6 6 0 0 0 0 12zM224.712 80.344H214.356a6 6 0 0 0 0 12h10.356a6 6 0 0 0 0-12zM141 92.344h51.858a6 6 0 0 0 0-12H141a6 6 0 0 0 0 12zM224.712 119.361H162.576a6 6 0 0 0 0 12h62.136a6 6 0 1 0 0-12zM140.869 131.361H141a6 6 0 1 0 0-12h-.127a6 6 0 0 0 0 12zM224.712 158.378h-5.929a6 6 0 1 0 0 12h5.929a6 6 0 0 0 0-12zM196.97 158.378H141a6 6 0 0 0 0 12H196.97a6 6 0 0 0 0-12zM359.208 53.328h9.2a6 6 0 0 0 0-12h-9.2a6 6 0 0 0 0 12zM284.69 53.328H337a6 6 0 0 0 0-12H284.69a6 6 0 0 0 0 12zM368.407 80.344h-49a6 6 0 0 0 0 12h49a6 6 0 0 0 0-12zM284.69 92.344h12.87a6 6 0 0 0 0-12H284.69a6 6 0 0 0 0 12zM368.407 119.361H352.36a6 6 0 0 0 0 12h16.047a6 6 0 1 0 0-12zM284.69 131.361h46.183a6 6 0 1 0 0-12H284.69a6 6 0 0 0 0 12zM368.407 158.378h-53.54a6 6 0 0 0 0 12h53.54a6 6 0 0 0 0-12zM284.69 170.378h8.747a6 6 0 0 0 0-12H284.69a6 6 0 0 0 0 12zM255.966 223.343a53.274 53.274 0 0 0-53.214 53.213v24.085a53.275 53.275 0 0 0 53.214 53.214h.257a53.275 53.275 0 0 0 53.214-53.214V276.556a53.275 53.275 0 0 0-53.214-53.213zm41.471 53.213v24.085a41.261 41.261 0 0 1-41.214 41.214h-.257a41.261 41.261 0 0 1-41.214-41.214V276.556a41.26 41.26 0 0 1 41.214-41.213h.257A41.26 41.26 0 0 1 297.437 276.556zM394.457 253.636a47.38 47.38 0 0 0-47.326 47.327v21.082a47.38 47.38 0 0 0 47.326 47.326h.225a47.38 47.38 0 0 0 47.326-47.326V300.963a47.381 47.381 0 0 0-47.326-47.327zm35.551 47.327v21.082a35.366 35.366 0 0 1-35.326 35.326h-.225a35.366 35.366 0 0 1-35.326-35.326V300.963a35.367 35.367 0 0 1 35.326-35.327h.225A35.367 35.367 0 0 1 430.008 300.963z"/><path fill="#284268" d="M428.1,373.02c-3.142-.192-4.76,1.774-6.318,3.674a34.113,34.113,0,0,1-53.87-1.32,5.991,5.991,0,0,0-4.978-2.436,52.007,52.007,0,0,0-26.7,8.076,59.069,59.069,0,0,0-41.877-21.283c-3.163-.194-4.716,1.695-6.51,3.885a39.827,39.827,0,0,1-62.894-1.541,5.945,5.945,0,0,0-4.978-2.436,58.915,58.915,0,0,0-40.9,17.864c-1.126,1.154-2.186,2.355-3.206,3.583a52.341,52.341,0,0,0-24.9-8.066c-3.153-.192-4.761,1.774-6.317,3.674a34.114,34.114,0,0,1-53.871-1.32,5.976,5.976,0,0,0-4.978-2.436,52.67,52.67,0,0,0-51.3,52.673V472.3a6,6,0,0,0,6,6H162.205V496a6,6,0,0,0,6,6H343.983a6,6,0,0,0,6-6V478.3H471.5a6,6,0,0,0,6-6V425.611A52.719,52.719,0,0,0,428.1,373.02ZM46.5,466.3V425.611a40.949,40.949,0,0,1,36.694-40.5,46.115,46.115,0,0,0,69.912.162,40.341,40.341,0,0,1,16.052,5.774,59.122,59.122,0,0,0-6.953,27.912V466.3ZM337.983,490H174.205V418.961A47.327,47.327,0,0,1,217.344,371.8a51.829,51.829,0,0,0,79.16.173,47.375,47.375,0,0,1,41.479,46.989ZM465.5,466.3H349.983V418.961a59.07,59.07,0,0,0-7.027-27.976,39.994,39.994,0,0,1,17.374-5.876,46.115,46.115,0,0,0,69.915.166A40.72,40.72,0,0,1,465.5,425.611Z"/><path fill="#284268" d="M117.318,369.371h.225a47.38,47.38,0,0,0,47.326-47.326V300.963a47.38,47.38,0,0,0-47.326-47.327h-.225a47.381,47.381,0,0,0-47.326,47.327v21.082A47.38,47.38,0,0,0,117.318,369.371ZM81.992,300.963a35.367,35.367,0,0,1,35.326-35.327h.225a35.367,35.367,0,0,1,35.326,35.327v21.082a35.366,35.366,0,0,1-35.326,35.326h-.225a35.366,35.366,0,0,1-35.326-35.326Z"/></svg>