<?xml version="1.0" encoding="UTF-8"?><svg xmlns="http://www.w3.org/2000/svg" xmlns:xlink="http://www.w3.org/1999/xlink" version="1.1" id="Layer_1" x="0px" y="0px" viewBox="0 0 24 24" xml:space="preserve"><path fill="#303C42" d="M23.828 11.122L21 8.663V3.5a.5.5 0 0 0-.5-.5h-3a.5.5 0 0 0-.5.5v1.685l-4.672-4.063a.501.501 0 0 0-.656 0l-11.5 10A.5.5 0 0 0 .1 11.8l1.5 2a.5.5 0 0 0 .734.071L3 13.273V22.5a.5.5 0 0 0 .5.5h5a.5.5 0 0 0 .5-.5V14h6v8.5a.5.5 0 0 0 .5.5h5a.5.5 0 0 0 .5-.5v-9.227l.666.598a.5.5 0 0 0 .734-.071l1.5-2a.5.5 0 0 0-.072-.678z"/><path fill="#E53935" d="M18 4h2v3.794l-2-1.74z"/><path fill="#D7CCC8" d="M20 22h-4v-8.5a.5.5 0 0 0-.5-.5h-7a.5.5 0 0 0-.5.5V22H4v-9.628l8-7.2 8 7.2V22z"/><path fill="#E53935" d="M21.928 12.763l-9.594-8.635a.5.5 0 0 0-.668 0l-9.594 8.635-.893-1.19L12 2.162l10.82 9.41-.892 1.19z"/><linearGradient id="SVGID_1_" gradientUnits="userSpaceOnUse" x1="7.4681549" y1="8.9043427" x2="20.2818451" y2="21.7180328"><stop offset="0" stop-color="#000" stop-opacity="0.1"/><stop offset="1" stop-color="#000" stop-opacity="0"/></linearGradient><path fill="url(#SVGID_1_)" d="M16 13.5V22h4v-9.628l-8-7.2-8 7.2V14.5l4 4v-5a.5.5 0 0 1 .5-.5h7a.5.5 0 0 1 .5.5z"/><linearGradient id="SVGID_2_" gradientUnits="userSpaceOnUse" x1="1.5262392" y1="8.1158829" x2="23.0738869" y2="18.1637173"><stop offset="0" stop-color="#FFF" stop-opacity="0.2"/><stop offset="1" stop-color="#FFF" stop-opacity="0"/></linearGradient><path fill="url(#SVGID_2_)" d="M23.828 11.122L21 8.663V3.5a.5.5 0 0 0-.5-.5h-3a.5.5 0 0 0-.5.5v1.685l-4.672-4.063a.501.501 0 0 0-.656 0l-11.5 10A.5.5 0 0 0 .1 11.8l1.5 2a.5.5 0 0 0 .734.071L3 13.273V22.5a.5.5 0 0 0 .5.5h5a.5.5 0 0 0 .5-.5V14h6v8.5a.5.5 0 0 0 .5.5h5a.5.5 0 0 0 .5-.5v-9.227l.666.598a.5.5 0 0 0 .734-.071l1.5-2a.5.5 0 0 0-.072-.678z"/><metadata><rdf:RDF xmlns:rdf="http://www.w3.org/1999/02/22-rdf-syntax-ns#" xmlns:rdfs="http://www.w3.org/2000/01/rdf-schema#" xmlns:dc="http://purl.org/dc/elements/1.1/"><rdf:Description about="https://iconscout.com/legal#licenses" dc:title="real,setate,house,home,apartment" dc:description="real,setate,house,home,apartment" dc:publisher="Iconscout" dc:date="2017-08-16" dc:format="image/svg+xml" dc:language="en"><dc:creator><rdf:Bag><rdf:li>Those Icons</rdf:li></rdf:Bag></dc:creator></rdf:Description></rdf:RDF></metadata></svg>