<?xml version="1.0" encoding="utf-8"?>
<!-- Generator: Adobe Illustrator 23.0.0, SVG Export Plug-In . SVG Version: 6.00 Build 0)  -->
<svg version="1.1" id="Layer_1" xmlns="http://www.w3.org/2000/svg" xmlns:xlink="http://www.w3.org/1999/xlink" x="0px" y="0px"
	 viewBox="0 0 32 32" style="enable-background:new 0 0 32 32;" xml:space="preserve">
<path d="M29,10v18c0,0.5-0.5,1-1,1h-9c-0.5,0-1-0.5-1-1v-7h-4v7c0,0.5-0.5,1-1,1H4c-0.5,0-1-0.5-1-1V10c0-0.4,0.2-0.7,0.5-0.9l12-7
	c0.3-0.2,0.7-0.2,1,0l12,7C28.8,9.3,29,9.6,29,10z"/>
<path d="M28.5,9.1l-12-7c-0.3-0.2-0.7-0.2-1,0l-12,7C3.2,9.3,3,9.6,3,10v18c0,0.5,0.5,1,1,1h9c0.5,0,1-0.5,1-1v-7h4v7
	c0,0.5,0.5,1,1,1h9c0.5,0,1-0.5,1-1V10C29,9.6,28.8,9.3,28.5,9.1z M27,27h-7v-7c0-0.5-0.5-1-1-1h-6c-0.5,0-1,0.5-1,1v7H5V10.6
	l11-6.4l11,6.4V27z"/>
</svg>
