<svg xmlns="http://www.w3.org/2000/svg" width="47" height="38.055" viewBox="0 0 47 38.055">
  <path id="Icon_awesome-school" data-name="Icon awesome-school" d="M0,15.75V34.875A1.125,1.125,0,0,0,1.125,36H6.75V13.5H2.25A2.25,2.25,0,0,0,0,15.75Zm25.313-3.375H23.625V9.563A.562.562,0,0,0,23.063,9H21.938a.562.562,0,0,0-.562.563v4.5a.562.562,0,0,0,.563.563h3.375a.562.562,0,0,0,.563-.562V12.938A.562.562,0,0,0,25.313,12.375ZM35,7.878,23.748.378a2.251,2.251,0,0,0-2.5,0L10,7.878A2.25,2.25,0,0,0,9,9.75V36h9V25.875a1.125,1.125,0,0,1,1.125-1.125h6.75A1.125,1.125,0,0,1,27,25.875V36h9V9.75a2.25,2.25,0,0,0-1-1.872ZM22.5,18a5.625,5.625,0,1,1,5.625-5.625A5.625,5.625,0,0,1,22.5,18Zm20.25-4.5h-4.5V36h5.625A1.125,1.125,0,0,0,45,34.875V15.75A2.25,2.25,0,0,0,42.75,13.5Z" transform="translate(1 1.055)" fill="none" stroke="#fff" stroke-width="2"/>
</svg>
