<svg xmlns="http://www.w3.org/2000/svg" width="64" height="64" viewBox="0 0 16.933 16.933"><g transform="translate(-52.917 52.914)"><g transform="translate(34.869 -98.55)"><path fill="#82b1ff" style="line-height:normal;font-variant-ligatures:normal;font-variant-position:normal;font-variant-caps:normal;font-variant-numeric:normal;font-variant-alternates:normal;font-feature-settings:normal;text-indent:0;text-align:start;text-decoration-line:none;text-decoration-style:solid;text-decoration-color:#000;text-transform:none;text-orientation:mixed;shape-padding:0;isolation:auto;mix-blend-mode:normal" d="m 33.394531,58.591145 c 0,-0.288037 -0.239306,-0.529296 -0.527343,-0.529296 H 31.8125 c -0.288038,0 -0.527344,0.241259 -0.527344,0.529296 v 1.060547 c 0,0.288038 0.239306,0.527344 0.527344,0.527344 h 1.054688 c 0.288037,0 0.527343,-0.239306 0.527343,-0.527344 z" color="#000" font-family="sans-serif" font-weight="400" overflow="visible" white-space="normal"/><path fill="#ff5252" style="line-height:normal;font-variant-ligatures:normal;font-variant-position:normal;font-variant-caps:normal;font-variant-numeric:normal;font-variant-alternates:normal;font-feature-settings:normal;text-indent:0;text-align:start;text-decoration-line:none;text-decoration-style:solid;text-decoration-color:#000;text-transform:none;text-orientation:mixed;shape-padding:0;isolation:auto;mix-blend-mode:normal" d="m 21.771649,57.532651 a 0.26460979,0.26460979 0 0 0 -0.150379,0.04702 l -0.134876,0.09302 v 2.88303 l 0.160197,0.107487 a 0.26460979,0.26460979 0 0 0 0.148312,0.04496 h 9.543087 c 0.259985,0 0.476456,-0.219213 0.476456,-0.478523 v -2.21847 c 0,-0.259369 -0.216458,-0.478523 -0.476456,-0.478523 z" color="#000" font-family="sans-serif" font-weight="400" overflow="visible" white-space="normal"/><path fill="#82b1ff" style="line-height:normal;font-variant-ligatures:normal;font-variant-position:normal;font-variant-caps:normal;font-variant-numeric:normal;font-variant-alternates:normal;font-feature-settings:normal;text-indent:0;text-align:start;text-decoration-line:none;text-decoration-style:solid;text-decoration-color:#000;text-transform:none;text-orientation:mixed;shape-padding:0;isolation:auto;mix-blend-mode:normal" d="M20.957227 58.038563c-.406789.284941-.808765.577697-1.21285.867138-.146619.1056-.146619.323831 0 .429432.403492.289404.805286.582914 1.212848.865587zM31 58.854817c0-.288037-.239306-.527343-.527344-.527343h-2.90039c-.288038 0-.527344.239306-.527344.527343v.53125c0 .288038.239306.529297.527344.529297h2.90039C30.760694 59.915364 31 59.674105 31 59.386067z" color="#000" font-family="sans-serif" font-weight="400" overflow="visible" white-space="normal"/><path fill="#ffe57f" d="m 19.130859,48.014974 h -0.01758 -0.0098 c -0.146171,5.17e-4 -0.264234,0.119454 -0.263672,0.265625 v 8.740234 c -5.62e-4,0.146171 0.117501,0.265108 0.263672,0.265625 h 0.0098 0.01758 c 1.989619,-0.244944 3.882288,-1.062014 5.923829,-1.037109 0.627492,0.01215 1.071028,0.153283 1.251953,0.386718 0.105937,0.136402 0.312031,0.136402 0.417968,0 0.180924,-0.233435 0.622508,-0.374565 1.25,-0.386718 2.067509,-0.183456 3.896376,1.009441 5.923829,1.037109 h 0.01953 0.0078 c 0.146176,-5.1e-4 0.264247,-0.119449 0.263685,-0.265625 v -8.740234 c 0,-0.216616 -0.129321,-0.265625 -0.291002,-0.265625 -2.307706,-0.243795 -5.466378,-1.129826 -7.382813,0.267578 -2.439498,-1.462111 -4.781775,-0.493684 -7.384779,-0.267578 z" color="#000" font-family="sans-serif" font-weight="400" overflow="visible" white-space="normal" style="line-height:normal;font-variant-ligatures:normal;font-variant-position:normal;font-variant-caps:normal;font-variant-numeric:normal;font-variant-alternates:normal;font-feature-settings:normal;text-indent:0;text-align:start;text-decoration-line:none;text-decoration-style:solid;text-decoration-color:#000;text-transform:none;text-orientation:mixed;shape-padding:0;isolation:auto;mix-blend-mode:normal"/></g><path style="line-height:normal;font-variant-ligatures:normal;font-variant-position:normal;font-variant-caps:normal;font-variant-numeric:normal;font-variant-alternates:normal;font-feature-settings:normal;text-indent:0;text-align:start;text-decoration-line:none;text-decoration-style:solid;text-decoration-color:#000;text-transform:none;text-orientation:mixed;shape-padding:0;isolation:auto;mix-blend-mode:normal" d="m 58.45173,-51.05735 c -0.36365,-0.0011 -0.73089,0.01905 -1.09141,0.05219 -0.7552,0.06944 -1.47893,0.190392 -2.07584,0.293005 -0.43785,0.04537 -0.87327,0.178062 -1.31258,0.183452 -0.14612,5.29e-4 -0.26413,0.11363 -0.26355,0.265618 v 8.74055 c -5.3e-4,0.146119 0.11743,0.265033 0.26355,0.265618 h 0.01 0.0176 c 0.33972,0 0.84229,-0.126963 1.50172,-0.285255 0.65943,-0.15829 1.44712,-0.354016 2.23035,-0.505913 0.78323,-0.151895 1.56411,-0.258133 2.1916,-0.245978 0.62749,0.01214 1.0712,0.153104 1.25212,0.386541 0.10594,0.136482 0.31213,0.136482 0.41806,0 0.18093,-0.233437 0.62205,-0.374389 1.24954,-0.386541 0.62749,-0.01214 1.40837,0.09409 2.1916,0.245978 0.78322,0.151897 1.57092,0.347623 2.23035,0.505913 0.51097,0.08262 1.02614,0.278942 1.52187,0.285255 0.26836,0 0.2713,-0.158123 0.2713,-0.265618 v -8.74055 c 5.3e-4,-0.146119 -0.11743,-0.265034 -0.26355,-0.265618 -0.49321,-0.03717 -0.92159,-0.116687 -1.31051,-0.183452 -0.59691,-0.102613 -1.32116,-0.223562 -2.07636,-0.293005 -1.39754,-0.128508 -2.88956,-0.05597 -3.92586,0.67541 -0.12719,0 -0.13588,-2.64e-4 -0.19585,-5.29e-4 -0.9133,-0.514427 -1.9649,-0.727075 -2.83393,-0.727075 z m 0.0501,0.528135 c 0.79608,0.0073 1.99613,0.17803 2.61637,0.665591 0.006,2.444697 -0.008,4.936847 10e-4,7.361502 -0.32551,-0.20788 -0.70708,-0.312333 -1.18661,-0.321622 -0.69486,-0.01347 -1.49936,0.10092 -2.30063,0.256315 -0.80128,0.155398 -1.59783,0.351991 -2.25413,0.509532 -0.54289,0.130315 -0.89541,0.194278 -1.1405,0.22479 v -8.199498 c 0.30301,-0.02371 0.64518,-0.0736 1.13688,-0.158131 0.59478,-0.102248 1.30289,-0.220189 2.03296,-0.287319 0.37387,-0.02156 0.75833,-0.0508 1.0946,-0.05116 z m 5.76192,0 c 0.36076,-0.0013 0.72947,0.0176 1.0945,0.05116 0.73007,0.06713 1.44076,0.185071 2.03554,0.287319 0.49156,0.0845 0.83184,0.134401 1.13481,0.158131 v 8.199498 c -0.24508,-0.03051 -0.59812,-0.09447 -1.14101,-0.22479 -0.6563,-0.157541 -1.45027,-0.354134 -2.25155,-0.509532 -0.80127,-0.155395 -1.60784,-0.269772 -2.3027,-0.256315 -0.4807,0.0093 -0.8605,0.11771 -1.18597,0.326596 -2e-5,-2.436579 -1e-5,-4.915434 -1e-5,-7.366476 0.84281,-0.497969 1.82226,-0.657466 2.61639,-0.665591 z m -7.41712,1.291394 c -0.95349,0.104677 -1.62678,0.314709 -1.62678,0.314709 -0.33865,0.103008 -0.18414,0.610986 0.15452,0.507979 0,0 2.59734,-0.761937 4.59145,-0.0062 0.33073,0.125055 0.51831,-0.371039 0.18758,-0.496094 -1.13561,-0.377089 -2.17556,-0.44223 -3.30677,-0.320403 z m 5.76554,0.320392 c -0.33073,0.125058 -0.14314,0.621152 0.18758,0.496094 1.99411,-0.755774 4.59404,0.0062 4.59404,0.0062 0.33865,0.101629 0.4911,-0.40635 0.15244,-0.507979 0,0 -0.6738,-0.209515 -1.62729,-0.314193 v -5.29e-4 c -1.08466,-0.120629 -2.34409,-0.03508 -3.30677,0.320416 z m -5.76554,1.818495 c -0.95349,0.104677 -1.62678,0.316259 -1.62678,0.316259 -0.35073,0.09571 -0.18985,0.622493 0.15452,0.505912 0,0 2.59734,-0.76142 4.59145,-0.0057 0.34054,0.150897 0.54246,-0.38087 0.18758,-0.494027 -1.12472,-0.346104 -2.21388,-0.4401 -3.30677,-0.322456 z m 5.76554,0.322461 c -0.35486,0.113164 -0.15295,0.644911 0.18758,0.494027 1.99411,-0.755777 4.59404,0.0057 4.59404,0.0057 0.35075,0.127624 0.51532,-0.418502 0.15244,-0.505912 0,0 -0.6738,-0.211582 -1.62729,-0.31626 -1.11826,-0.109738 -2.3592,-0.02751 -3.30677,0.322456 z m -5.76554,1.817975 c -0.95349,0.10468 -1.62678,0.314712 -1.62678,0.314712 -0.33865,0.103007 -0.18414,0.610986 0.15452,0.507979 0,0 2.59734,-0.761937 4.59145,-0.0062 0.33073,0.125055 0.51831,-0.371039 0.18758,-0.496094 -1.13561,-0.37709 -2.17556,-0.442233 -3.30677,-0.320405 z m 5.76554,0.320395 c -0.33073,0.125058 -0.14314,0.621152 0.18758,0.496094 1.99411,-0.755775 4.59404,0.0062 4.59404,0.0062 0.33865,0.101629 0.4911,-0.40635 0.15244,-0.507979 0,0 -0.6738,-0.210032 -1.62729,-0.314711 -1.08466,-0.120635 -2.3441,-0.03509 -3.30677,0.320405 z m -5.97225,3.62717 c -0.0537,4.3e-5 -0.10619,0.01646 -0.15037,0.04702 -0.6352,0.428508 -1.25405,0.879887 -1.8769,1.326025 -0.14662,0.105601 -0.14662,0.323832 0,0.429432 0.61748,0.467723 1.25957,0.897139 1.90221,1.328092 0.0438,0.02945 0.0955,0.04511 0.14832,0.04496 h 9.54308 c 0.25999,0 0.47646,-0.219213 0.47646,-0.478523 v -0.05066 h 1.05265 c 0.28803,0 0.52761,-0.239062 0.52761,-0.527101 v -1.060915 c 0,-0.288039 -0.23958,-0.529167 -0.52761,-0.529167 h -1.05265 v -0.05064 c 0,-0.259368 -0.21646,-0.478523 -0.47646,-0.478523 z m 0.0816,0.529167 h 9.43198 c 0,0.705728 0,1.411454 0,2.117183 h -9.41027 l -0.38861,-0.260967 v -1.590664 c 0.098,-0.09511 0.24688,-0.182528 0.3669,-0.265552 z m 5.71903,0.265615 c -0.28803,0 -0.52762,0.23958 -0.52762,0.527616 v 0.531236 c 0,0.288036 0.23959,0.529167 0.52762,0.529167 h 2.90008 c 0.28804,0 0.52762,-0.241131 0.52762,-0.529167 v -0.531236 c 0,-0.288036 -0.23958,-0.527616 -0.52762,-0.527616 z m 4.24212,0.263552 h 1.05265 v 1.058849 h -1.05265 z m -10.85722,0.0956 v 0.867645 l -0.60565,-0.433565 z m 6.61717,0.170013 h 2.89646 v 0.529685 h -2.89646 z" color="#000" font-family="sans-serif" font-weight="400" overflow="visible" white-space="normal"/></g></svg>