<?xml version="1.0" encoding="utf-8"?>
<!-- Generator: Adobe Illustrator 23.0.0, SVG Export Plug-In . SVG Version: 6.00 Build 0)  -->
<svg version="1.1" id="Layer_1" xmlns="http://www.w3.org/2000/svg" xmlns:xlink="http://www.w3.org/1999/xlink" x="0px" y="0px"
	 viewBox="0 0 48 48" style="enable-background:new 0 0 48 48;" xml:space="preserve">
<style type="text/css">
	.st0{stroke:#FFFFFF;stroke-miterlimit:10;}
</style>
<path d="M13.5,4.5v31h25v-31H13.5z M36.5,19.5c0,0.5-0.5,1-1,1h-19c-0.5,0-1-0.5-1-1v-9c0-0.5,0.5-1,1-1h19c0.5,0,1,0.5,1,1V19.5z"
	/>
<path class="st0" d="M39.5,2.5h-27c-2.8,0-5,2.2-5,5v33c0,2.8,2.2,5,5,5h27c0.5,0,1-0.5,1-1v-41C40.5,3,40,2.5,39.5,2.5z M9.5,7.5
	c0-1.3,0.8-2.4,2-2.8v30.9c-0.7,0.2-1.4,0.5-2,0.9V7.5z M38.5,39.5h-10c-0.5,0-1,0.5-1,1s0.5,1,1,1h10v2h-26c-1.7,0-3-1.3-3-3
	s1.3-3,3-3h26V39.5z M38.5,35.5h-25v-31h25V35.5z"/>
<path d="M27.5,40.5c0,0.5,0.5,1,1,1h10v2h-26c-1.7,0-3-1.3-3-3s1.3-3,3-3h26v2h-10C28,39.5,27.5,40,27.5,40.5z"/>
<path d="M35.5,9.5h-19c-0.5,0-1,0.5-1,1v9c0,0.5,0.5,1,1,1h19c0.5,0,1-0.5,1-1v-9C36.5,10,36,9.5,35.5,9.5z M32.9,18.5H19.1
	c-0.9,0-1.6-0.7-1.6-1.6v-3.8c0-0.9,0.7-1.6,1.6-1.6h13.8c0.9,0,1.6,0.7,1.6,1.6v3.8C34.5,17.8,33.8,18.5,32.9,18.5z"/>
</svg>
