<svg xmlns="http://www.w3.org/2000/svg" data-name="Layer 1" viewBox="0 0 64 64"><rect width="30" height="16" x="10" y="34" fill="#80d8ff"/><path fill="#01579b" d="M56,18.75a.37.37,0,0,0,0-.14,1,1,0,0,0-.21-.32l-14-14a1,1,0,0,0-.32-.21.37.37,0,0,0-.14,0A.69.69,0,0,0,41,4H13a1,1,0,0,0-1,1V32H9a1,1,0,0,0-1,1V51a1,1,0,0,0,1,1h3v7a1,1,0,0,0,1,1H55a1,1,0,0,0,1-1V19A.69.69,0,0,0,56,18.75ZM42,7.41,52.59,18H42ZM10,34H40V50H10Zm4,24V52H41a1,1,0,0,0,1-1V33a1,1,0,0,0-1-1H14V6H40V19a1,1,0,0,0,1,1H54V58Z"/><polygon fill="#fff" points="52.59 18 42 18 42 7.41 52.59 18"/><path fill="#fff" d="M54,20V58H14V52H41a1,1,0,0,0,1-1V33a1,1,0,0,0-1-1H14V6H40V19a1,1,0,0,0,1,1Z"/><path fill="#01579b" d="M15 46V38h2.66a2.8 2.8 0 0 1 1.9.58 2.42 2.42 0 0 1 .83 1.92A2.54 2.54 0 0 1 20 41.82a2.19 2.19 0 0 1-1 .88 2.67 2.67 0 0 1-1.15.23H16.65V46zm1.69-4.52h.94a1.14 1.14 0 0 0 .81-.28 1 1 0 0 0 .29-.76q0-.92-1.1-.92h-.94zM21.95 46V38h3a3.18 3.18 0 0 1 2.08.68A4 4 0 0 1 28.5 42 4.48 4.48 0 0 1 28 44.11a3.52 3.52 0 0 1-1.4 1.45 4.54 4.54 0 0 1-2.22.44zm1.69-1.52h1.08a1.93 1.93 0 0 0 1.09-.29 2.53 2.53 0 0 0 1-2.26 2.4 2.4 0 0 0-.95-2.12 1.87 1.87 0 0 0-1.08-.29H23.64zM30.24 46V38h4.58v1.52H31.93v1.63h2.65v1.52H31.93V46z"/></svg>